<svg width="800" height="520" viewBox="0 0 800 520" fill="none" xmlns="http://www.w3.org/2000/svg">
  <defs>
    <linearGradient id="g1" x1="0" y1="0" x2="1" y2="1">
      <stop offset="0%" stop-color="#667eea" />
      <stop offset="100%" stop-color="#764ba2" />
    </linearGradient>
    <linearGradient id="g2" x1="0" y1="0" x2="1" y2="0">
      <stop offset="0%" stop-color="#6366f1" />
      <stop offset="100%" stop-color="#4f46e5" />
    </linearGradient>
  </defs>
  <rect x="0" y="0" width="800" height="520" rx="24" fill="url(#g1)" opacity="0.15"/>
  <g>
    <rect x="60" y="60" width="320" height="200" rx="16" fill="white" opacity="0.9"/>
    <rect x="80" y="88" width="120" height="16" rx="8" fill="#a5b4fc"/>
    <rect x="80" y="116" width="200" height="12" rx="6" fill="#c7d2fe"/>
    <rect x="80" y="144" width="180" height="12" rx="6" fill="#e0e7ff"/>
    <rect x="80" y="184" width="92" height="28" rx="10" fill="url(#g2)"/>
  </g>
  <g>
    <rect x="420" y="60" width="320" height="120" rx="16" fill="url(#g2)" opacity="0.95"/>
    <circle cx="456" cy="120" r="22" fill="rgba(255,255,255,0.3)"/>
    <path d="M448 120h16l8-12" stroke="white" stroke-width="2" fill="none"/>
    <rect x="488" y="96" width="160" height="16" rx="8" fill="white" opacity="0.95"/>
    <rect x="488" y="120" width="200" height="12" rx="6" fill="white" opacity="0.6"/>
  </g>
  <g>
    <rect x="420" y="210" width="320" height="120" rx="16" fill="white" opacity="0.95"/>
    <circle cx="456" cy="270" r="22" fill="#e0e7ff"/>
    <path d="M448 270h16m-8-8v16" stroke="#4f46e5" stroke-width="2"/>
    <rect x="488" y="246" width="170" height="16" rx="8" fill="#4f46e5" opacity="0.85"/>
    <rect x="488" y="270" width="220" height="12" rx="6" fill="#6366f1" opacity="0.45"/>
  </g>
  <g opacity="0.35">
    <circle cx="120" cy="420" r="40" fill="#c4b5fd"/>
    <circle cx="220" cy="420" r="24" fill="#a78bfa"/>
    <rect x="280" y="392" width="420" height="56" rx="12" fill="#8b5cf6"/>
  </g>
</svg>


